<mxfile host="app.diagrams.net" modified="2023-06-19T02:35:16.945Z" agent="Mozilla/5.0 (Windows NT 10.0; Win64; x64) AppleWebKit/537.36 (KHTML, like Gecko) Chrome/114.0.0.0 Safari/537.36 Edg/114.0.1823.51" etag="e2EeeqnZMEoKxITHKP3l" version="21.3.7" type="github">
  <diagram id="C5RBs43oDa-KdzZeNtuy" name="Page-1">
    <mxGraphModel dx="451" dy="540" grid="1" gridSize="10" guides="1" tooltips="1" connect="1" arrows="1" fold="1" page="1" pageScale="1" pageWidth="827" pageHeight="1169" math="0" shadow="0">
      <root>
        <mxCell id="WIyWlLk6GJQsqaUBKTNV-0" />
        <mxCell id="WIyWlLk6GJQsqaUBKTNV-1" parent="WIyWlLk6GJQsqaUBKTNV-0" />
        <mxCell id="j1_Hd5A-CeJLBZec2h_H-2" value="" style="edgeStyle=orthogonalEdgeStyle;rounded=0;orthogonalLoop=1;jettySize=auto;html=1;" edge="1" parent="WIyWlLk6GJQsqaUBKTNV-1" source="j1_Hd5A-CeJLBZec2h_H-0" target="j1_Hd5A-CeJLBZec2h_H-1">
          <mxGeometry relative="1" as="geometry" />
        </mxCell>
        <mxCell id="j1_Hd5A-CeJLBZec2h_H-0" value="开始" style="ellipse;whiteSpace=wrap;html=1;" vertex="1" parent="WIyWlLk6GJQsqaUBKTNV-1">
          <mxGeometry x="190" y="130" width="70" height="40" as="geometry" />
        </mxCell>
        <mxCell id="j1_Hd5A-CeJLBZec2h_H-4" value="" style="edgeStyle=orthogonalEdgeStyle;rounded=0;orthogonalLoop=1;jettySize=auto;html=1;" edge="1" parent="WIyWlLk6GJQsqaUBKTNV-1" source="j1_Hd5A-CeJLBZec2h_H-1" target="j1_Hd5A-CeJLBZec2h_H-3">
          <mxGeometry relative="1" as="geometry" />
        </mxCell>
        <mxCell id="j1_Hd5A-CeJLBZec2h_H-1" value="加载文件" style="whiteSpace=wrap;html=1;" vertex="1" parent="WIyWlLk6GJQsqaUBKTNV-1">
          <mxGeometry x="177.5" y="210" width="95" height="30" as="geometry" />
        </mxCell>
        <mxCell id="j1_Hd5A-CeJLBZec2h_H-6" value="" style="edgeStyle=orthogonalEdgeStyle;rounded=0;orthogonalLoop=1;jettySize=auto;html=1;" edge="1" parent="WIyWlLk6GJQsqaUBKTNV-1" source="j1_Hd5A-CeJLBZec2h_H-3" target="j1_Hd5A-CeJLBZec2h_H-5">
          <mxGeometry relative="1" as="geometry" />
        </mxCell>
        <mxCell id="j1_Hd5A-CeJLBZec2h_H-3" value="划分训练集，验证集以及测试集" style="whiteSpace=wrap;html=1;" vertex="1" parent="WIyWlLk6GJQsqaUBKTNV-1">
          <mxGeometry x="165" y="305" width="120" height="60" as="geometry" />
        </mxCell>
        <mxCell id="j1_Hd5A-CeJLBZec2h_H-8" value="" style="edgeStyle=orthogonalEdgeStyle;rounded=0;orthogonalLoop=1;jettySize=auto;html=1;" edge="1" parent="WIyWlLk6GJQsqaUBKTNV-1" source="j1_Hd5A-CeJLBZec2h_H-5" target="j1_Hd5A-CeJLBZec2h_H-7">
          <mxGeometry relative="1" as="geometry" />
        </mxCell>
        <mxCell id="j1_Hd5A-CeJLBZec2h_H-5" value="创建ALS对象并设置参数" style="whiteSpace=wrap;html=1;" vertex="1" parent="WIyWlLk6GJQsqaUBKTNV-1">
          <mxGeometry x="165" y="400" width="120" height="60" as="geometry" />
        </mxCell>
        <mxCell id="j1_Hd5A-CeJLBZec2h_H-13" value="" style="edgeStyle=orthogonalEdgeStyle;rounded=0;orthogonalLoop=1;jettySize=auto;html=1;" edge="1" parent="WIyWlLk6GJQsqaUBKTNV-1" source="j1_Hd5A-CeJLBZec2h_H-7" target="j1_Hd5A-CeJLBZec2h_H-12">
          <mxGeometry relative="1" as="geometry" />
        </mxCell>
        <mxCell id="j1_Hd5A-CeJLBZec2h_H-7" value="训练模型并确认最佳秩" style="whiteSpace=wrap;html=1;" vertex="1" parent="WIyWlLk6GJQsqaUBKTNV-1">
          <mxGeometry x="165" y="490" width="120" height="60" as="geometry" />
        </mxCell>
        <mxCell id="j1_Hd5A-CeJLBZec2h_H-9" value="&lt;div style=&quot;color: rgb(41, 41, 41); background-color: rgb(255, 255, 255); font-family: Consolas, &amp;quot;Courier New&amp;quot;, monospace; line-height: 27px;&quot;&gt;&lt;font style=&quot;font-size: 10px;&quot;&gt;SparkContext().textFile&lt;/font&gt;&lt;/div&gt;" style="text;html=1;align=center;verticalAlign=middle;resizable=0;points=[];autosize=1;strokeColor=none;fillColor=none;" vertex="1" parent="WIyWlLk6GJQsqaUBKTNV-1">
          <mxGeometry x="220" y="170" width="180" height="40" as="geometry" />
        </mxCell>
        <mxCell id="j1_Hd5A-CeJLBZec2h_H-11" value="&lt;div style=&quot;color: rgb(41, 41, 41); background-color: rgb(255, 255, 255); font-family: Consolas, &amp;quot;Courier New&amp;quot;, monospace; line-height: 27px;&quot;&gt;&lt;font style=&quot;font-size: 10px;&quot;&gt;small_data.randomSplit([6,&lt;span style=&quot;color: rgb(9, 109, 72);&quot;&gt;2&lt;/span&gt;,&lt;span style=&quot;color: rgb(9, 109, 72);&quot;&gt;2&lt;/span&gt;],&lt;span style=&quot;color: rgb(0, 16, 128);&quot;&gt;seed&lt;/span&gt;&lt;span style=&quot;color: rgb(0, 0, 0);&quot;&gt;=&lt;/span&gt;&lt;span style=&quot;color: rgb(9, 109, 72);&quot;&gt;10&lt;/span&gt;)&lt;/font&gt;&lt;/div&gt;" style="text;html=1;align=center;verticalAlign=middle;resizable=0;points=[];autosize=1;strokeColor=none;fillColor=none;" vertex="1" parent="WIyWlLk6GJQsqaUBKTNV-1">
          <mxGeometry x="220" y="253" width="280" height="40" as="geometry" />
        </mxCell>
        <mxCell id="j1_Hd5A-CeJLBZec2h_H-15" value="" style="edgeStyle=orthogonalEdgeStyle;rounded=0;orthogonalLoop=1;jettySize=auto;html=1;" edge="1" parent="WIyWlLk6GJQsqaUBKTNV-1" source="j1_Hd5A-CeJLBZec2h_H-12" target="j1_Hd5A-CeJLBZec2h_H-14">
          <mxGeometry relative="1" as="geometry" />
        </mxCell>
        <mxCell id="j1_Hd5A-CeJLBZec2h_H-12" value="计算测试集最小误差" style="whiteSpace=wrap;html=1;" vertex="1" parent="WIyWlLk6GJQsqaUBKTNV-1">
          <mxGeometry x="165" y="590" width="120" height="60" as="geometry" />
        </mxCell>
        <mxCell id="j1_Hd5A-CeJLBZec2h_H-14" value="预测并向用户推荐10部电影" style="whiteSpace=wrap;html=1;" vertex="1" parent="WIyWlLk6GJQsqaUBKTNV-1">
          <mxGeometry x="147.5" y="700" width="155" height="40" as="geometry" />
        </mxCell>
        <mxCell id="j1_Hd5A-CeJLBZec2h_H-16" value="&lt;div style=&quot;color: rgb(41, 41, 41); background-color: rgb(255, 255, 255); font-family: Consolas, &amp;quot;Courier New&amp;quot;, monospace; line-height: 27px;&quot;&gt;&lt;font style=&quot;font-size: 10px;&quot;&gt;model.recommendProducts(user_id,10)&lt;/font&gt;&lt;/div&gt;" style="text;html=1;align=center;verticalAlign=middle;resizable=0;points=[];autosize=1;strokeColor=none;fillColor=none;" vertex="1" parent="WIyWlLk6GJQsqaUBKTNV-1">
          <mxGeometry x="220" y="660" width="250" height="40" as="geometry" />
        </mxCell>
      </root>
    </mxGraphModel>
  </diagram>
</mxfile>
